<svg xmlns="http://www.w3.org/2000/svg" viewBox="0 0 2000 454.9" style="enable-background:new 0 0 2000 454.9" xml:space="preserve"><path d="M1199.142 278.773h-238.27c3.274 19.965 12.438 35.675 27.166 47.784 15.056 11.783 34.366 17.674 57.276 17.674 27.493 0 56.622-8.837 70.041-28.147h78.223c-13.419 35.675-48.44 65.131-70.368 74.95-21.601 10.146-47.457 15.056-77.241 15.056-46.148 0-83.787-14.074-112.916-41.894-29.13-27.82-43.53-62.84-43.53-104.734 0-42.875 14.728-78.877 43.53-107.024 28.802-28.475 65.131-42.549 108.988-42.549 46.476 0 84.442 14.074 113.244 42.549 29.129 28.147 43.857 65.785 43.857 112.261v14.074zm-73.64-55.64c-4.91-15.383-14.402-28.147-29.13-37.639-14.4-9.819-31.42-14.728-50.403-14.728-20.62 0-38.948 5.237-54.33 16.365-9.82 6.873-18.984 18.655-27.166 35.675h161.028zM1621.023 227.388c-.655 84.769-32.402 137.135-52.694 165.283-20.292 28.147-42.548 44.512-47.13 47.784-7.528 5.237-.982 16.038 6.218 14.074 55.313-13.746 115.862-18.328 115.862-18.328s49.094.982 68.077-59.568c12.11-39.602 31.42-96.878 31.42-148.918s-18.983-109.643-31.42-148.918c-18.983-60.877-68.077-59.568-68.077-59.568s-60.55-4.582-115.862-18.328c-7.2-1.964-13.746 8.837-6.218 14.073 4.582 3.273 26.838 19.638 47.13 47.785 20.292 27.493 52.04 79.86 52.694 164.629zM1896.931 227.388c.655 84.769 32.402 137.135 52.694 165.283 20.292 28.147 42.548 44.512 47.13 47.784 7.528 5.237.982 16.038-6.218 14.074-55.313-13.746-115.862-18.328-115.862-18.328s-49.094.982-68.077-59.568c-12.11-39.602-31.42-96.878-31.42-148.918s18.983-109.643 31.42-148.918c18.983-60.877 68.077-59.568 68.077-59.568s60.55-4.582 115.862-18.328c7.2-1.964 13.746 8.837 6.218 14.073-4.582 3.273-26.838 19.638-47.13 47.785-20.292 27.493-52.04 79.86-52.694 164.629zM448.005 406.417c-33.057 0-59.895-6.873-80.187-20.947-20.292-13.746-34.693-33.384-42.876-58.258-5.891-17.02-8.837-48.767-8.837-94.26V117.09h74.623v135.172c-.327 26.838 1.637 45.494 5.891 55.967 3.928 10.473 10.147 18.328 18.983 24.22 8.51 5.564 19.638 8.837 32.403 8.837 12.764 0 23.565-3.273 32.402-8.837 8.836-5.892 15.055-13.747 18.983-24.22 3.927-10.473 5.89-29.129 5.89-55.967V117.09h74.624v115.862c0 45.493-2.946 76.914-8.837 94.26-8.183 24.874-22.584 44.512-42.876 58.258-20.292 14.074-47.13 20.947-80.186 20.947zM1412.21 117.09l-79.532 168.229L1261 117.089h-81.17l110.299 258.562-37.64 79.205h82.806l159.392-337.766zM215.954 233.279v168.883h74.623V18.247h-74.623v144.01H74.89V18.246H-.06v383.915h74.95V233.28zM789.698 18.247h74.623v383.915h-74.623zM680.055 255.208v146.627h-74.623V117.09h64.805v29.129c19.31-38.293 66.44-43.53 94.26-26.838v65.131c-6.873-3.6-31.42-15.382-56.95.328-21.6 13.419-27.492 37.966-27.492 70.368z"/></svg>