<?xml version="1.0" standalone="no"?>
<!DOCTYPE svg PUBLIC "-//W3C//DTD SVG 20010904//EN"
 "http://www.w3.org/TR/2001/REC-SVG-20010904/DTD/svg10.dtd">
<svg version="1.0" xmlns="http://www.w3.org/2000/svg"
 width="300.000000pt" height="166.000000pt" viewBox="0 0 300.000000 166.000000"
 preserveAspectRatio="xMidYMid meet">

<g transform="translate(0.000000,166.000000) scale(0.100000,-0.100000)"
fill="#000000" stroke="none">
<path d="M1143 1647 c4 -10 7 -32 7 -48 0 -18 5 -29 14 -29 7 0 26 -10 42 -22
26 -21 27 -21 19 -3 -5 11 -8 32 -8 47 0 16 -6 29 -16 32 -9 3 -27 13 -41 23
-23 17 -24 17 -17 0z"/>
<path d="M1863 1637 c-20 -14 -32 -30 -33 -45 0 -13 -4 -31 -9 -41 -9 -16 -5
-15 32 3 39 19 42 24 44 64 1 23 1 42 0 41 -1 0 -16 -11 -34 -22z"/>
<path d="M1354 1606 c-13 -10 -23 -11 -31 -4 -6 5 -24 8 -39 6 -32 -4 -45 -28
-15 -28 22 0 41 -27 41 -58 0 -11 7 -23 16 -26 12 -5 15 -14 10 -41 -6 -29 -2
-39 27 -72 19 -21 37 -50 40 -65 4 -14 10 -33 13 -42 4 -12 -6 -9 -35 11 -24
16 -44 38 -48 52 -8 36 -23 52 -60 68 -18 7 -33 19 -33 26 0 6 -15 19 -33 27
-25 12 -33 22 -35 48 -3 29 -5 31 -23 21 -15 -8 -20 -19 -17 -44 2 -26 -4 -41
-25 -63 -33 -34 -37 -90 -9 -115 22 -21 36 -21 51 -4 8 11 6 18 -8 31 -28 25
-16 46 26 46 53 0 92 -26 114 -76 15 -33 25 -44 43 -44 38 0 142 -116 132
-147 -12 -35 -112 -148 -134 -151 -15 -2 -22 -10 -22 -25 -1 -49 -36 -103 -82
-126 -59 -28 -99 -27 -137 4 -60 51 -64 134 -9 180 33 28 46 30 82 14 51 -24
52 -109 1 -109 -31 0 -34 25 -3 34 21 5 22 7 7 22 -20 20 -54 11 -70 -18 -29
-53 33 -109 97 -88 40 13 74 60 74 101 0 20 7 30 30 39 50 21 80 65 80 116 0
57 -12 79 -49 92 -42 15 -76 -5 -76 -43 0 -23 5 -31 23 -33 20 -3 27 6 23 31
-2 14 27 7 33 -9 13 -33 5 -63 -20 -83 -37 -29 -62 -26 -99 13 -29 31 -35 33
-72 27 -129 -24 -188 -150 -129 -277 29 -62 76 -94 138 -96 25 0 54 3 66 6 29
10 28 -5 -3 -34 -19 -17 -31 -21 -55 -17 -33 7 -53 -14 -33 -34 6 -6 8 -31 5
-55 l-5 -45 36 21 c23 14 44 19 60 15 33 -9 41 7 21 42 -13 23 -14 33 -3 58 7
18 13 24 15 15 1 -8 5 -32 9 -52 12 -73 88 -119 146 -87 16 8 59 85 59 104 0
3 -15 21 -32 41 -22 24 -29 39 -20 42 22 7 13 22 -13 22 -31 0 -47 -33 -33
-69 6 -17 4 -28 -8 -42 -13 -14 -13 -21 -3 -40 11 -22 12 -22 25 -4 15 21 30
14 21 -10 -8 -20 -51 -19 -71 1 -51 51 -7 186 74 227 19 9 36 25 36 35 1 9 2
26 3 37 1 22 71 135 83 135 4 0 24 -25 45 -56 25 -38 37 -68 39 -96 2 -37 5
-42 35 -52 45 -15 99 -102 99 -161 0 -49 -23 -85 -54 -85 -28 0 -53 25 -36 35
6 4 17 -1 25 -11 13 -18 14 -17 20 9 4 16 3 33 -4 41 -6 7 -8 27 -5 45 7 35
-8 61 -37 61 -15 0 -18 -5 -13 -24 4 -18 1 -27 -14 -35 -64 -34 -10 -161 68
-161 54 0 110 69 110 137 0 22 2 25 10 13 14 -22 12 -63 -5 -87 -14 -20 -14
-22 5 -28 11 -3 24 -4 30 0 5 3 27 -3 48 -14 l39 -20 0 69 0 68 -33 -5 c-27
-4 -37 0 -58 22 -15 16 -25 29 -24 31 2 1 21 -1 43 -5 52 -9 114 5 143 32 54
50 81 138 63 205 -20 73 -75 122 -153 136 -32 6 -38 3 -57 -23 -12 -16 -31
-33 -42 -36 -52 -17 -114 48 -89 94 14 27 26 27 33 0 7 -27 51 -23 55 6 7 53
-68 79 -109 38 -52 -52 -25 -152 50 -188 35 -17 41 -25 41 -51 0 -41 31 -80
76 -94 32 -11 40 -10 63 7 14 11 27 32 29 47 4 34 -24 68 -52 64 -28 -4 -32
-28 -7 -35 25 -6 23 -26 -3 -31 -43 -9 -63 59 -28 91 10 9 33 20 50 23 27 5
36 2 62 -26 69 -74 14 -200 -87 -200 -65 0 -143 72 -143 132 0 23 -6 31 -30
40 -20 6 -49 36 -85 85 l-55 75 47 60 c53 67 55 69 97 77 23 5 32 14 38 37 14
57 87 101 136 83 25 -10 29 -34 7 -43 -8 -3 -15 -12 -15 -20 0 -32 53 -29 70
5 18 33 11 70 -20 101 -23 23 -29 35 -24 54 4 17 0 31 -11 44 -23 26 -38 26
-30 0 9 -29 -11 -57 -45 -65 -17 -4 -28 -11 -25 -16 3 -5 -9 -17 -27 -28 -49
-29 -58 -40 -65 -72 -3 -16 -9 -29 -13 -29 -5 0 -22 -12 -39 -26 -17 -14 -31
-22 -31 -17 1 29 29 92 53 115 20 20 27 37 27 66 0 23 6 45 15 52 8 7 15 22
15 34 0 27 18 46 43 46 10 0 17 5 15 13 -6 15 -55 22 -71 9 -8 -7 -18 -6 -31
4 -26 19 -86 18 -114 -2 -25 -17 -30 -62 -7 -70 18 -7 47 14 39 27 -10 16 13
9 28 -8 38 -44 26 -110 -28 -152 -23 -18 -28 -29 -26 -59 3 -40 -51 -148 -68
-137 -5 3 -23 30 -40 61 -22 38 -31 63 -27 82 4 21 -3 36 -34 69 -43 47 -51
91 -23 131 19 28 30 28 37 1 7 -24 34 -23 51 3 8 13 5 22 -14 43 -27 29 -84
34 -116 11z m36 -701 c0 -21 -24 -45 -44 -45 -12 0 -5 39 10 54 22 23 34 20
34 -9z m292 13 c21 -17 30 -58 13 -58 -15 0 -30 18 -39 48 -8 25 2 28 26 10z"/>
<path d="M389 387 c-24 -13 -57 -43 -74 -66 -27 -38 -30 -51 -30 -116 0 -65 3
-78 30 -116 17 -23 50 -53 75 -67 38 -20 55 -23 107 -19 75 6 123 33 161 90
23 35 27 51 27 113 0 64 -3 77 -30 115 -39 56 -103 89 -170 89 -35 0 -66 -8
-96 -23z m146 -61 c100 -42 98 -201 -2 -242 -155 -65 -252 174 -98 242 39 17
58 17 100 0z"/>
<path d="M1985 391 c-70 -31 -125 -113 -125 -186 0 -42 22 -97 53 -132 113
-128 321 -76 357 89 35 164 -133 298 -285 229z m152 -76 c32 -22 63 -74 63
-108 0 -46 -35 -102 -76 -122 -116 -55 -232 80 -164 190 38 62 116 79 177 40z"/>
<path d="M159 263 c-1 -168 -5 -187 -43 -191 -21 -3 -29 1 -33 17 -4 17 -13
21 -45 21 -39 0 -40 -1 -34 -28 4 -15 21 -40 38 -56 27 -25 36 -28 80 -24 36
4 57 12 76 32 27 26 27 28 30 196 l3 170 -35 0 -36 0 -1 -137z"/>
<path d="M740 205 l0 -195 40 0 40 0 0 80 0 81 68 -3 67 -3 0 -78 0 -77 38 0
37 0 0 195 0 195 -37 0 -38 0 0 -77 0 -78 -67 -3 -68 -3 0 81 0 80 -40 0 -40
0 0 -195z"/>
<path d="M1100 206 l0 -196 35 0 35 0 0 133 0 132 88 -132 c86 -131 88 -133
125 -133 l37 0 0 195 0 195 -40 0 -40 0 0 -127 0 -128 -83 125 c-79 120 -84
125 -120 128 l-37 3 0 -195z"/>
<path d="M1740 254 c0 -81 -5 -154 -10 -165 -14 -25 -46 -24 -62 1 -9 13 -24
20 -45 20 -28 0 -33 -4 -33 -24 0 -62 90 -105 160 -76 53 22 60 50 60 230 l0
160 -35 0 -35 0 0 -146z"/>
<path d="M2330 205 l0 -195 35 0 35 0 0 80 0 80 70 0 70 0 0 -80 0 -80 35 0
35 0 0 195 0 195 -35 0 -35 0 0 -80 0 -80 -70 0 -70 0 0 80 0 80 -35 0 -35 0
0 -195z"/>
<path d="M2680 205 l0 -195 41 0 42 0 -7 130 c-4 72 -5 130 -3 130 3 0 44 -58
91 -130 83 -126 87 -130 121 -130 l35 0 0 195 0 195 -35 0 -34 0 -3 -127 -3
-126 -84 126 c-83 126 -84 127 -122 127 l-39 0 0 -195z"/>
</g>
</svg>
