<?xml version="1.0" standalone="no"?>
<!DOCTYPE svg PUBLIC "-//W3C//DTD SVG 20010904//EN"
 "http://www.w3.org/TR/2001/REC-SVG-20010904/DTD/svg10.dtd">
<svg version="1.0" xmlns="http://www.w3.org/2000/svg"
 width="2048.000000pt" height="2048.000000pt" viewBox="0 0 2048.000000 2048.000000"
 preserveAspectRatio="xMidYMid meet">

<g transform="translate(0.000000,2048.000000) scale(0.100000,-0.100000)"
fill="#000000" stroke="none">
<path d="M9190 12244 c0 -3 -175 -745 -390 -1649 -214 -903 -397 -1687 -406
-1741 -21 -127 -15 -285 14 -366 54 -153 157 -226 349 -248 49 -5 348 -10 679
-10 l591 0 12 69 c6 39 11 76 11 84 0 11 -23 15 -103 19 -75 4 -117 12 -155
28 -68 29 -126 93 -146 161 -19 61 -21 189 -5 275 7 41 656 2824 784 3362 l5
22 -620 0 c-341 0 -620 -3 -620 -6z"/>
<path d="M17986 11973 c-8 -38 -49 -207 -91 -377 -41 -170 -74 -310 -72 -312
2 -2 208 -4 457 -4 381 -1 464 1 513 14 107 29 184 81 250 169 69 92 98 163
148 370 27 109 49 200 49 202 0 3 -279 5 -619 5 l-619 0 -16 -67z"/>
<path d="M2420 10924 c-249 -36 -363 -85 -487 -210 -130 -131 -116 -84 -423
-1359 -149 -614 -270 -1119 -270 -1121 0 -8 2144 -3 2335 6 110 5 236 16 280
25 367 70 540 259 659 719 14 54 26 102 26 107 0 5 -259 9 -608 9 l-608 0 -48
-69 c-61 -90 -185 -208 -261 -248 -105 -55 -179 -74 -307 -80 -65 -3 -118 -2
-118 3 0 5 72 319 161 699 180 772 182 780 283 881 111 111 250 161 469 171
70 3 127 3 127 -1 0 -4 -20 -87 -45 -186 -25 -99 -45 -182 -45 -185 0 -3 278
-4 617 -3 l617 3 97 410 c54 226 98 416 98 423 1 9 -257 12 -1261 11 -695 -1
-1274 -3 -1288 -5z"/>
<path d="M5855 10916 c-161 -26 -285 -76 -387 -160 -65 -53 -146 -168 -178
-253 -22 -57 -550 -2227 -550 -2258 0 -15 94 -16 1223 -12 1293 4 1329 6 1516
53 328 83 500 304 580 749 11 61 108 495 216 965 108 470 200 872 204 893 l9
37 -1277 -1 c-968 -1 -1295 -4 -1356 -13z m1269 -473 c-3 -10 -74 -318 -158
-684 -148 -645 -155 -668 -192 -724 -95 -144 -223 -246 -373 -298 -71 -25
-106 -31 -205 -35 -112 -4 -118 -4 -112 14 3 11 76 320 161 687 86 368 165
693 176 723 24 63 80 141 135 188 113 96 265 142 476 145 87 1 96 -1 92 -16z"/>
<path d="M11329 10915 c-277 -43 -473 -191 -558 -420 -19 -50 -551 -2231 -551
-2258 0 -5 503 -7 1218 -4 1074 4 1230 6 1332 21 330 49 509 177 632 456 34
78 96 278 111 358 l7 32 -610 0 -609 0 -37 -57 c-21 -32 -76 -97 -124 -144
-98 -98 -182 -146 -314 -179 -92 -23 -256 -28 -256 -7 0 6 72 320 160 696 116
496 167 701 189 748 62 131 191 230 358 274 73 19 333 40 333 26 0 -3 -20 -83
-45 -179 -25 -95 -45 -179 -45 -185 0 -10 129 -13 614 -13 577 0 615 1 620 18
3 9 45 188 95 397 49 209 92 392 96 408 l7 27 -1268 -1 c-1007 -1 -1287 -4
-1355 -14z"/>
<path d="M14825 10916 c-161 -26 -275 -73 -386 -160 -65 -51 -146 -166 -179
-253 -21 -55 -550 -2230 -550 -2260 0 -13 167 -14 1218 -10 1263 5 1280 5
1465 49 267 62 436 233 541 548 19 58 44 142 54 188 l19 82 -611 0 -611 -1
-32 -52 c-47 -79 -146 -181 -226 -235 -107 -71 -214 -104 -359 -110 l-116 -4
8 38 c161 707 323 1371 346 1420 38 81 138 183 217 222 103 51 198 72 346 79
l133 6 -7 -24 c-5 -13 -27 -99 -50 -191 l-43 -168 619 0 c341 0 619 2 619 4 0
2 39 167 86 367 47 200 91 390 99 422 l13 57 -1266 -1 c-960 -1 -1286 -4
-1347 -13z"/>
<path d="M17730 10925 c0 -3 -108 -450 -241 -993 -132 -543 -247 -1032 -255
-1087 -41 -262 16 -457 158 -542 111 -67 103 -66 824 -71 l652 -3 12 73 c6 40
13 78 15 84 2 8 -32 13 -103 16 -173 8 -266 66 -305 189 -21 64 -22 191 -3
291 8 40 121 513 250 1052 130 538 236 982 236 987 0 5 -271 9 -620 9 -341 0
-620 -2 -620 -5z"/>
</g>
</svg>
