<?xml version="1.0" encoding="utf-8"?>
<!-- Generator: Adobe Illustrator 26.5.0, SVG Export Plug-In . SVG Version: 6.00 Build 0)  -->
<svg version="1.1" id="Layer_1" xmlns="http://www.w3.org/2000/svg" xmlns:xlink="http://www.w3.org/1999/xlink" x="0px" y="0px"
	 viewBox="0 0 512 512" style="enable-background:new 0 0 512 512;" xml:space="preserve">
<g id="XMLID_1_">
	<path id="XMLID_5_" d="M251.39,159.94c29.59,0,52.88,1.4,78.12,5.61c27.49,4.63,53.16,10.94,73.91,22.86
		c1.54,0.84,2.66,1.4,4.63,2.66c7.99,5.19,18.09,13.46,20.06,24.54c1.54,8.98-2.66,16.27-7.15,21.6
		c-4.77,5.47-10.52,9.54-16.69,13.04c-25.11,14.31-58.35,22.02-92.71,25.95c-15.99,1.82-32.82,3.09-52.45,3.09
		c-19.07,0-36.05-0.84-52.31-2.38c-33.1-3.37-67.88-10.24-93.97-23.56c-6.45-3.37-12.62-6.87-18.09-11.78
		c-5.19-4.63-10.1-10.24-11.5-18.23c-2.38-13.18,7.01-22.86,14.73-28.75c8.27-6.31,18.93-11.64,29.17-15.43
		c21.32-7.99,46.98-13.18,72.51-16.27C216.47,161.06,231.62,160.08,251.39,159.94z M252.23,171.86c-23,0-44.88,4.21-63.96,11.22
		c-9.4,3.51-17.67,7.71-24.97,13.89c-6.45,5.33-13.89,14.03-12.2,25.81c1.54,10.24,9.68,17.53,16.55,22.3
		c7.71,5.33,16.97,9.54,26.37,12.48c20.2,6.59,42.92,9.4,66.34,9.12c22.3-0.28,45.72-4.07,64.1-11.36
		c9.12-3.51,17.81-7.85,24.97-13.89c6.59-5.47,13.6-14.45,11.78-25.53c-1.54-9.96-9.12-17.25-16.55-22.3
		c-8.13-5.61-16.69-9.26-26.37-12.48c-14.87-4.91-31.56-7.85-47.83-8.7c-5.05-0.28-11.78-0.7-17.95-0.42
		C252.37,171.86,252.23,171.86,252.23,171.86L252.23,171.86z"/>
	<path id="XMLID_8_" d="M23.2,301.88c9.82,0,18.51-0.14,26.51,1.54c2.66,0.56,5.75,1.54,6.59,3.65c0.84,1.82,0.56,5.05,0.56,9.54
		c0,8.42,0,16.27,0,25.11c0,1.54,0.14,3.65-0.28,4.77c-1.26,3.51-8.42,4.35-12.06,4.77c-9.82,0.98-21.46,0.98-31.56,0
		c-3.93-0.42-10.94-1.26-12.48-4.63c-0.84-1.96-0.42-6.73-0.42-9.68c0-7.29,0-12.48,0-20.06c0-3.51-0.56-8.13,0.84-10.38
		c1.4-2.1,6.03-3.37,9.96-3.93C15.21,302.16,18.43,301.88,23.2,301.88z M22.36,308.05c-0.42,0.84-0.28,3.09-0.28,4.49
		c0,8.42,0,15.43,0,23.7c0,2.81-0.56,7.71,0.28,9.26c0.84,1.68,3.37,1.54,6.03,1.68c1.96,0,5.05,0.14,6.03-1.54
		c0.84-1.54,0.28-6.03,0.28-8.98c0-7.71,0-11.5,0-18.93c0-2.1,0.56-7.85-0.14-9.4c-0.84-1.96-6.03-1.82-7.85-1.68
		C25.58,306.65,23.06,306.65,22.36,308.05z"/>
	<path id="XMLID_11_" d="M108.19,302.44c8.84,0,18.51,0,27.77,0c6.31,16.13,12.76,32.4,19.07,48.67c-8.27,0-16.69,0-24.97,0
		c-1.4-3.93-2.66-8.13-4.07-12.06c-4.63-0.14-10.1-0.14-14.87,0c-1.4,3.79-2.38,7.99-3.51,12.06c-5.75,0-11.36,0-17.11,0
		c4.21-12.06,8.7-24.26,13.04-36.33C105.11,310.71,106.79,306.09,108.19,302.44z M112.26,333.29c3.79-0.14,8.42-0.14,12.2,0
		c-2.1-6.45-4.21-12.9-6.59-19.07C116.05,320.67,113.94,326.84,112.26,333.29z"/>
	<path id="XMLID_12_" d="M215.63,322.07c5.19-5.33,10.66-11.36,15.99-17.25c0.7-0.7,1.82-2.1,2.38-2.24c1.26-0.42,3.65,0,5.05,0
		c4.91,0,10.24,0.14,15.15-0.14c0.28,0.56-0.56,0.84-0.84,1.26c-5.61,6.17-11.64,12.76-17.53,18.93
		c5.75,9.54,11.92,19.21,17.39,28.61c-8.42,0-16.69,0-25.11,0c-4.49-6.87-8.13-14.31-12.48-21.18c0,7.01,0,14.17,0,21.18
		c-7.85,0-15.85,0-23.7,0c-0.14-15.71,0.14-32.68-0.14-48.53c7.57-0.28,16.13,0,23.56-0.14c0.56,0,0.28,1.26,0.28,2.1
		C215.63,310.01,215.63,316.46,215.63,322.07z"/>
	<path id="XMLID_13_" d="M290.52,302.44c7.85,0,15.71,0,23.56,0c0,14.03,0,28.47,0,42.08c7.85,0.14,15.99-0.14,23.56,0.14
		c0,2.1,0,4.35,0,6.45c-15.85,0-31.56,0-47.41,0c0.28-14.87,0-32.54,0.14-48.39C290.24,302.58,290.52,302.16,290.52,302.44z"/>
	<path id="XMLID_14_" d="M373.13,302.44c15.43,0,31,0,46.42,0c0,2.1,0,4.07,0,6.17c-7.57,0-15.15,0-22.58,0
		c-0.28,4.77,0,9.96-0.14,14.87c5.75,0.14,11.92-0.14,17.53,0.14c0,2.1-0.14,4.07,0.14,5.61c-5.89,0-11.64,0-17.53,0
		c0,5.19,0,10.24,0,15.43c7.29,0.28,15.01,0,22.58,0.14c0,2.1,0,4.07,0,6.17c-15.43,0-31,0-46.42,0c0-16.13,0-32.26,0-48.39
		C372.99,302.44,373.13,302.3,373.13,302.44z"/>
	<path id="XMLID_15_" d="M511.84,302.3C511.98,302.3,511.98,302.3,511.84,302.3c-6.31,10.24-13.46,20.62-20.2,30.86
		c0.14,5.89-0.14,12.48,0.14,17.81c-7.71,0.28-15.99,0-23.98,0.14c0-4.21,0-8.7,0-13.32c0-1.54,0.28-3.23,0-4.49
		c-0.28-1.12-1.82-2.66-2.66-3.93c-6.17-8.98-12.2-18.09-17.95-26.93c8.42,0,16.69,0,25.11,0c3.65,5.89,7.01,12.06,10.52,18.09
		c3.65-5.89,7.01-12.06,10.66-18.09C499.64,302.3,505.95,302.58,511.84,302.3z"/>
</g>
</svg>
