<svg id="Layer_1" xmlns="http://www.w3.org/2000/svg" viewBox="0 0 450 450" width="2500" height="2500"><style>.st0{fill:#8f646e}.st1{display:none}.st2{display:inline;fill:#d5a6b2}.st3{fill:#812039}.st4{fill:#9e0e34}.st5{fill:#fefefe}</style><g id="layer1"><path class="st0" d="M61 299c0-.5.7-1 1.5-1s1.5.5 1.5 1c0 .6-.7 1-1.5 1s-1.5-.4-1.5-1zM197 297.5c0-.8.5-1.5 1-1.5.6 0 1 .7 1 1.5s-.4 1.5-1 1.5c-.5 0-1-.7-1-1.5zM399 296c0-.5.7-1 1.5-1s1.5.5 1.5 1c0 .6-.7 1-1.5 1s-1.5-.4-1.5-1zM197 285.5c0-.8.5-1.5 1-1.5.6 0 1 .7 1 1.5s-.4 1.5-1 1.5c-.5 0-1-.7-1-1.5zM368 246c0-.5.7-1 1.5-1s1.5.5 1.5 1c0 .6-.7 1-1.5 1s-1.5-.4-1.5-1z"/></g><g id="layer2" class="st1"><path class="st2" d="M251 298.5c0-.8.7-1.5 1.5-1.5s1.5.7 1.5 1.5-.7 1.5-1.5 1.5-1.5-.7-1.5-1.5zM260 298.5c0-.8.7-1.5 1.5-1.5s1.5.7 1.5 1.5-.7 1.5-1.5 1.5-1.5-.7-1.5-1.5zM399 297.5c0-.8.5-1.5 1-1.5.6 0 1 .7 1 1.5s-.4 1.5-1 1.5c-.5 0-1-.7-1-1.5zM426 297.6c0-.9.7-1.6 1.6-1.6 1.7 0 1.4 2.2-.4 2.8-.7.2-1.2-.3-1.2-1.2zM156 297c0-.5.7-1 1.5-1s1.5.5 1.5 1c0 .6-.7 1-1.5 1s-1.5-.4-1.5-1zM298 297c0-.5.7-1 1.5-1s1.5.5 1.5 1c0 .6-.7 1-1.5 1s-1.5-.4-1.5-1zM336 297c0-.5.7-1 1.5-1s1.5.5 1.5 1c0 .6-.7 1-1.5 1s-1.5-.4-1.5-1zM369 297c0-.5.7-1 1.5-1s1.5.5 1.5 1c0 .6-.7 1-1.5 1s-1.5-.4-1.5-1zM156 286c0-.5.7-1 1.5-1s1.5.5 1.5 1c0 .6-.7 1-1.5 1s-1.5-.4-1.5-1zM369 286c0-.5.7-1 1.5-1s1.5.5 1.5 1c0 .6-.7 1-1.5 1s-1.5-.4-1.5-1zM72 284c0-.5.7-1 1.5-1s1.5.5 1.5 1c0 .6-.7 1-1.5 1s-1.5-.4-1.5-1zM251 277c0-.5.7-1 1.5-1s1.5.5 1.5 1c0 .6-.7 1-1.5 1s-1.5-.4-1.5-1zM366 260c0-.5.7-1 1.5-1s1.5.5 1.5 1c0 .6-.7 1-1.5 1s-1.5-.4-1.5-1zM140 234.5c0-.8.5-1.5 1-1.5.6 0 1 .7 1 1.5s-.4 1.5-1 1.5c-.5 0-1-.7-1-1.5zM227 234.5c0-.8.5-1.5 1-1.5.6 0 1 .7 1 1.5s-.4 1.5-1 1.5c-.5 0-1-.7-1-1.5zM290 234.5c0-.8.5-1.5 1-1.5.6 0 1 .7 1 1.5s-.4 1.5-1 1.5c-.5 0-1-.7-1-1.5zM368 234.5c0-.8.5-1.5 1-1.5.6 0 1 .7 1 1.5s-.4 1.5-1 1.5c-.5 0-1-.7-1-1.5zM257 233.5c0-.8.7-1.5 1.5-1.5s1.5.7 1.5 1.5-.7 1.5-1.5 1.5-1.5-.7-1.5-1.5zM46 221.5c0-.8.5-1.5 1-1.5.6 0 1 .7 1 1.5s-.4 1.5-1 1.5c-.5 0-1-.7-1-1.5zM61 221.5c0-.8.5-1.5 1-1.5.6 0 1 .7 1 1.5s-.4 1.5-1 1.5c-.5 0-1-.7-1-1.5zM176.7 199.3c-1.2-1.1-.8-2.3.8-2.3.8 0 1.5.7 1.5 1.5 0 1.6-1.2 2-2.3.8zM186.2 184.9c.2-.7 1-1.5 1.7-1.7.8-.3 1.2.1.9.9-.2.7-1 1.5-1.7 1.7-.8.3-1.2-.1-.9-.9z"/></g><g id="layer3"><path class="st3" d="M20.5 299.8c-.3-.7-.4-18.8-.3-40.3.3-33.7.5-39 1.8-39.3 1.3-.2 1.5 4.5 1.2 38.8l-.3 39H35v-30.9l3.4-1.6c4-1.9 7.1-1.7 7.1.5 0 1-1.1 1.5-3.5 1.5h-3.5L38 284l-.5 16.5-8.3.3c-6 .2-8.4-.1-8.7-1zM46 299.5c0-1.2 1.4-1.5 6.5-1.5 3.6 0 7.4-.5 8.5-1.2 2.5-1.6 3.5-.5 2 2.1-.9 1.9-2 2.1-9 2.1-6.4 0-8-.3-8-1.5zM84.6 298.5c-5.5-1.9-9.4-6.1-11.1-11.9-1.6-5.3-1.4-6.2 1-5.3.8.4 1.5 1.8 1.5 3.5 0 3.8 4.6 9 9.5 10.7 2.2.7 4.1 2 4.3 2.9.4 1.9-.1 1.9-5.2.1zM94.2 298.4c.2-1.1 1.2-2 2.3-2.2 6.1-1 11.5-6.5 11.5-11.8 0-2.3 2.4-4.3 3.6-3.1 1.1 1-1.7 8.7-4.3 11.8-2.5 3-5.4 4.6-11.1 6.4-2 .6-2.3.4-2-1.1zM126.5 297.7c-.3-.7-.4-15.4-.3-32.7l.3-31.5 2.8-.3c3-.4 3.8 2.1 1.1 3.6-1.3.7-1.5 4.6-1.2 31.5.2 24.5 0 30.7-1 30.7-.7 0-1.5-.6-1.7-1.3zM155 291.5c0-7.5 1-9.3 3-5.6 2.1 4 .7 13.1-2 13.1-.6 0-1-3.3-1-7.5zM168.7 298.3c-.4-.3-.7-15-.7-32.5 0-27.6.2-31.8 1.5-31.8s1.5 4 1.5 30.3c0 16.6.3 31.2.6 32.5.5 1.5.2 2.2-.8 2.2-.8 0-1.8-.3-2.1-.7zM213.5 297.7c-.3-.7-.4-15.4-.3-32.7l.3-31.5 3.8-.3c3.3-.3 3.8-.1 3.5 1.5-.2 1-1.3 1.9-2.6 2.1l-2.2.3v31c0 20.6-.3 30.9-1 30.9-.6 0-1.3-.6-1.5-1.3zM226.2 295.3c.3-2.7.8-3.9 2.1-4.1 1.6-.3 1.8.2 1.5 3.5-.2 2.7-.8 3.9-2.1 4.1-1.5.3-1.7-.3-1.5-3.5zM248 298.3c-3.8-1.4-7.2-4.8-9.1-9-1.1-2.5-1.8-4.7-1.5-5 1.2-1.2 3.6.8 3.6 3.1 0 2.8 4.8 7.3 8.8 8.2 4.5 1 5.2 1.3 5.2 2.4 0 1-4.4 1.2-7 .3zM259.2 297.9c.3-.8 1.3-1.5 2.4-1.7 5.1-.8 9.2-3.5 11-7.3 1.1-2.1 2.5-3.9 3.2-3.9 3 0-.4 6.8-5.3 10.5-3.9 3-12.1 4.7-11.3 2.4zM299 297.1c-.6-1.2-1-11.2-1-25.5v-23.5l-4.2-.3c-3-.2-4.3-.8-4.3-1.8 0-1.2 1.1-1.4 5-1.2 2.8.2 5.5.8 6 1.3.6.6 1.1 11.4 1.3 26.9.3 25.5-.1 29-2.8 24.1zM337 297.1c-.6-1.2-1-13.2-1-32 0-28.7.1-30.1 1.9-31.1 2.6-1.3 28.6-1.3 31.2 0 4.5 2.5 1.6 3.1-13.3 2.9l-15.3-.1-.3 31.1c-.1 18.8-.6 31.1-1.2 31.1-.5 0-1.4-.9-2-1.9zM368.3 293.9c.2-4-.1-5.3-1.5-6-1-.5-1.8-1.6-1.8-2.4 0-2.2 4.7-1.9 6 .4 2.1 4 .7 13.1-2 13.1-.6 0-.9-2.3-.7-5.1zM386.5 297.7c-.3-.7-.4-15.4-.3-32.7l.3-31.5 7.5-.3c11.5-.4 19.4.9 19.8 3.2.3 1.4 0 1.7-1.1 1.3-1.3-.5-17.3-1-22.4-.8-1 .1-1.3 6.6-1.3 29.1v29h4.8c5.4 0 6.7-.7 5.1-2.6-1.5-1.8-.4-4.4 1.7-4.4 1.4 0 1.5.7 1 4.2-.4 2.3-1.2 4.8-1.8 5.5-1.4 1.7-12.7 1.8-13.3 0zM414.3 298.3c-1.5-.3-2.5-1.4-2.9-3.1-.3-1.5-1.2-4.9-2-7.6-1.7-6.1-1.8-7.6-.1-7.6.7 0 2.1 3.1 3.2 7.7l2 7.7h5c4.2 0 5-.3 4.7-1.8-.2-1.2.2-1.7 1.5-1.4 2.2.4 2.9 3.4 1.3 5.3-1.2 1.5-7.4 1.8-12.7.8zM196.5 291.5c0-5.3.2-6.5 1.5-6.3 2.2.5 2.2 12.1 0 12.6-1.2.2-1.5-1-1.5-6.3zM312 273.3c.1-18.3.4-25.2 1.3-26.4 1.7-2.3 11.2-3 11.2-.9 0 1.1-1.3 1.6-4.7 1.8l-4.8.3v25c0 21.5-.2 24.9-1.5 24.9s-1.5-3.4-1.5-24.7zM60.7 291.3c-.6-3.2-.1-4.3 1.9-4.3.9 0 1.4 1.1 1.4 3.5 0 4.3-2.5 4.8-3.3.8zM422.4 287.3c-.3-1.6-1.7-6.1-3.1-10.2-2.4-7.3-2.4-9.7.1-7 1.1 1.2 6.6 17.1 6.6 19.2 0 .4-.7.7-1.5.7s-1.7-1.2-2.1-2.7zM87.5 286.6c-1.3-1.9-1.5-5.5-1.3-21.1.2-13.8.6-18.9 1.5-19.2 1-.4 1.3 4.2 1.5 19.4l.3 19.8h5V266c0-19.5 0-19.5-2.2-19.8-2.7-.4-3.1-3.2-.5-3.2 1 0 2.8 1 4 2.3 2.1 2.2 2.2 3.2 2.2 20.8 0 15.1-.3 18.9-1.6 20.7-2.1 3-6.9 3-8.9-.2zM252.5 287c-.9-1-2-4-2.2-6.5-.5-3.7-.3-4.5 1.1-4.5 1.5 0 2.2 1.8 2.8 7 .2 1.9 1 2.6 3.1 2.8 1.5.2 2.7.9 2.7 1.8 0 2.1-5.4 1.7-7.5-.6zM182.7 286.2c-1.5-1.6-1.7-4.9-1.7-27 0-21.7.2-25.2 1.5-25.2s1.5 3.4 1.5 25c0 22.1.2 25 1.6 25 .9 0 1.4.7 1.2 1.7-.4 2.4-2.2 2.6-4.1.5zM359.6 287.1c-.3-.5-1.5-.7-2.6-.4-1.3.4-2 0-2-1s1.1-1.5 4.1-1.5c3.2-.1 4 .3 3.7 1.5-.4 1.9-2.4 2.8-3.2 1.4zM145 285.5c0-.8.7-1.5 1.5-1.5s1.5.7 1.5 1.5-.7 1.5-1.5 1.5-1.5-.7-1.5-1.5zM190 285.5c0-.8.7-1.5 1.5-1.5s1.5.7 1.5 1.5-.7 1.5-1.5 1.5-1.5-.7-1.5-1.5zM261 283.4c0-3.9-3.3-8.3-9.6-12.7-3-2.1-5.4-4.4-5.4-5.2 0-2.2.5-2 7.8 3.9 9.3 7.4 10.4 8.8 10 12.7-.4 4.1-2.8 5.2-2.8 1.3z"/><path class="st3" d="M350.2 277.8c.2-3.8.8-6.3 1.6-6.6.9-.3 1.2 1.4 1.2 6.2 0 5.3-.3 6.6-1.5 6.6-1.3 0-1.5-1.1-1.3-6.2zM274.7 279.3c-.4-.3-.7-1.3-.7-2.1 0-3.6-3.8-8.5-11-14.2-11.5-9.1-13.8-13.3-9.7-17.7 1.1-1.3 3.1-2.3 4.3-2.3 2.8 0 6.4 4.4 6.4 7.8 0 2.4.1 2.5 6.6 1.9 5.7-.4 6.5-.3 6.2 1.2-.3 1.3-1.7 1.6-7.8 1.6h-7.5l-.3-3.5c-.4-4.1-1.8-6-4.3-6-2.2 0-3.9 2.9-3 5.2.3.9 3.5 4 7.1 6.8 11.9 9.5 14.4 12.5 16.5 19.8.6 2.1-1.2 3.2-2.8 1.5zM237.2 277.4c.2-1.1 1.1-2 2.2-2.2 1.3-.3 1.7.1 1.4 1.4-.2 1.1-1.1 2-2.2 2.2-1.3.3-1.7-.1-1.4-1.4zM405.5 275c-.9-1.6-2-3-2.5-3-.6 0-1-.7-1-1.5 0-2.9 3.3-1.1 6.4 3.5 2 3 2 4 .1 4-.8 0-2.1-1.3-3-3zM227 255.6c0-17.5-.1-18.4-2-18.9-2.4-.6-2.7-3.7-.4-3.7.8 0 2.4.5 3.5 1 1.8 1 1.9 2.3 1.9 20.5 0 16.7-.2 19.5-1.5 19.5s-1.5-2.7-1.5-18.4zM356.2 271.3c.2-1.4 1.5-1.9 5-2.1 4.4-.3 4.7-.5 4.5-3-.1-1.8.3-2.7 1.3-2.7 1.1 0 1.5 1 1.4 3.3-.3 5.7-.8 6.2-6.9 6.2-4.8 0-5.6-.3-5.3-1.7zM417 265.4c0-.4 1.4-2.2 3-4.1 2.6-2.9 3-4.2 3-8.9 0-6-1.9-10.7-5-12.4-2.4-1.3-2.6-3-.4-3 2.5 0 7.1 5.9 8.3 10.7 1.4 5.6 0 11.7-3.7 15.6-2.3 2.5-5.2 3.6-5.2 2.1zM241.6 262.1c-3.3-3.6-4.8-14.1-2-14.1 1.1 0 1.5.8 1.3 3.3-.1 1.8.7 5 1.9 7.4 1.2 2.3 2.2 4.5 2.2 4.8 0 1.1-1.8.4-3.4-1.4zM363.7 261.3c-1-.3-1.6-1-1.4-1.6.5-1.7 5.2-1.5 5.2.2 0 1.6-1.2 2.1-3.8 1.4zM403 260.7c0-.9 1.3-1.8 3.3-2.2 1.7-.4 3.8-1.2 4.5-1.7.7-.6 1.2-.6 1.2-.1 0 1.9-2.6 4.1-5.7 4.8-2.6.5-3.3.3-3.3-.8zM353 259.5c0-.8-.7-1.5-1.5-1.5-1.1 0-1.5-1.2-1.5-4.7.1-7.2 1.1-7.9 11.3-8.5 7.6-.4 8.7-.2 8.5 1.1-.3 1.3-2 1.7-8.6 1.9l-8.2.3v9.9h3.5c2.4 0 3.5.5 3.5 1.5s-1.1 1.5-3.5 1.5-3.5-.5-3.5-1.5zM72.4 250c1-6.6 3.1-10.5 7.2-13.6 3.5-2.7 4.4-2.9 12.4-2.9s8.9.2 12.4 2.9c3.8 2.8 6.1 6.9 7.3 12.8.5 2.6.3 3-1.3 2.6-1.3-.2-2-1.3-2.2-3.8-.4-4.2-3.4-8.5-7.2-10.5-4-2.1-14.7-1.8-18.5.4-3.8 2.3-6.8 7.3-6.9 11.9-.1 2.8-.6 3.8-2 4-1.7.4-1.8 0-1.2-3.8zM38 251.6c0-.9-.7-1.6-1.5-1.6-1.2 0-1.5-2.4-1.7-13.2l-.3-13.3H32c-1.6 0-2.6-.6-2.8-1.8-.3-1.6.2-1.8 4-1.5l4.3.3.3 14.8.3 14.7h4.5c5.9 0 5.5 2.4-.4 2.8-3.3.2-4.2 0-4.2-1.2zM409.5 249c-.4-1.3-1.5-2-3.1-2-1.5 0-2.4-.6-2.4-1.5 0-.8.8-1.5 1.9-1.5 2.4 0 7.1 3.7 7.1 5.6 0 2.1-2.8 1.7-3.5-.6z"/><path class="st3" d="M273.7 247.3c-.4-.3-.7-1.6-.7-2.8s-1.4-3.4-3.1-5.1c-2.7-2.6-3.8-2.9-10.7-3.2-9.2-.4-13.9 1.5-16.2 6.5-1.7 3.8-4.5 4.6-3.5 1.1 1.1-3.7 3.8-7 7.5-9 5-2.7 18.6-2.2 22.6.8 4.5 3.3 8.9 12.4 6.1 12.4-.7 0-1.7-.3-2-.7zM321.5 241c-.3-.5-.4-1.4 0-1.9.3-.5.1-1.2-.3-1.5-1.4-.8-26.3-.9-29.4-.1-2.2.6-2.8.4-2.8-.9 0-2.9 3.7-3.6 18.7-3.6 16.4 0 17.3.3 17.3 5.7 0 3.2-2.1 4.6-3.5 2.3zM137.2 237.3c-2.5-.3-3.2-.9-3-2.1.4-2.1 4-2.7 6.7-1.2 2.3 1.2 2.9 4.1.9 3.8-.7 0-2.8-.3-4.6-.5zM172.5 236c-1.1-1.8 1-3.2 4.1-2.8 4 .4 3.8 3.2-.3 3.6-1.7.2-3.4-.2-3.8-.8zM45 223.1c0-2.9 12.7-4.2 17.3-1.9 3.5 1.8 1.5 2.5-7.8 2.7-5.7.1-9.5-.3-9.5-.8zM223.2 199.4c.2-1.2 2-2.1 5.3-2.9 2.8-.6 6-1.5 7.3-1.9 1.6-.5 2.2-.3 2.2.8 0 1.3-5.1 3.4-12.3 5.1-2.3.5-2.8.3-2.5-1.1zM206.3 199.3c-2-.3-3.3-1-3.3-1.9 0-1.4 3.1-2 4.4-.7.4.4 2.7.6 5.1.4 3.5-.2 4.5.1 4.5 1.3 0 1.6-2.9 1.9-10.7.9zM177.4 197.8c-.4-.6.1-1.8 1.2-2.7 1-.9 2.7-2.9 3.8-4.6 1-1.6 3-4.3 4.5-5.9l2.6-2.8-2.2-1.5c-2.2-1.5-3.2-4.3-1.5-4.3 3.4.1 8.2 9 4.8 9-.8 0-2.3 1.2-3.2 2.8-.9 1.5-2.5 3.9-3.6 5.5-1.8 2.7-1.8 2.7.2 2.7 1.1 0 2 .7 2 1.5 0 1.8-7.5 2.1-8.6.3zM188.2 197.4c.3-1.6 1.4-1.9 6.6-2.2 5.1-.2 6.2 0 6.2 1.3 0 1.1-1.1 1.5-4.9 1.5-2.7 0-5.7.3-6.6.6-1.3.5-1.6.2-1.3-1.2zM269 197.5c0-1 1.1-1.5 3.5-1.5s3.5.5 3.5 1.5-1.1 1.5-3.5 1.5-3.5-.5-3.5-1.5zM278 197.6c0-2 1.2-2.6 5.5-3 2-.2 3.9-.7 4.3-1.1.4-.4 2.2-1.3 4-2.1 2.9-1.2 3.7-3.4 1.2-3.4-.5 0-3.2-1.3-6-3-2.8-1.6-6.1-3-7.4-3-1.2 0-2.6-.3-2.9-.7-.4-.4-3.2-.5-6.2-.4-4.6.2-5.5 0-5.5-1.4 0-1.5 1-1.6 7.8-1.3 6.7.4 9 1.1 17.5 5.2 5.3 2.6 9.7 5.2 9.7 5.6 0 1.5-8.2 5.8-14.9 8-7.6 2.4-7.1 2.3-7.1.6zM257.3 196.9c-1.9-.6-3.3-1.6-3.3-2.5 0-1 .6-1.4 1.8-1.1.9.3 3.4.8 5.5 1.2 2.3.4 3.7 1.1 3.7 2 0 1.7-2.8 1.8-7.7.4zM240 194.7c0-2.1 5.3-4 8.9-3.2 4.8 1 3.9 3.3-1.1 3.2-2.4-.1-5.1.2-6 .7-1.3.6-1.8.4-1.8-.7zM149.2 179.3c.2-1.3 1.9-2.1 6.3-3 3.3-.6 8.5-2.3 11.6-3.7 6.2-2.7 10.5-2.7 14.5-.1 2.6 1.7 3.2 3.5 1.2 3.5-.7-.1-2.8-.9-4.7-1.9-3.3-1.7-3.5-1.7-7.2.1-2.1 1-4.4 1.8-5.2 1.8-.7 0-1.7.4-2.2.8-1 .9-6.6 2.6-11.8 3.7-2.4.5-2.8.3-2.5-1.2zM131.1 178.7c-5.3-2.7-3.4-4.3 10.9-9.3 3-1 9.8-4.3 15-7.2 5.2-3 11.7-6.2 14.3-7.3 5.8-2.3 10.7-2.5 10.7-.4 0 1-1 1.5-3.4 1.5-2.2 0-9.2 3-21.2 9-9.8 5-18.5 9-19.4 9-.9 0-2.5.6-3.6 1.4-1.4 1.1-1.5 1.4-.4 1.4 4-.3 6 .3 6 1.7 0 1.9-5.4 2-8.9.2zM254.4 172.9c.4-2.7 2-7.7 3.7-10.9 4.6-9.2 15.3-19.9 17.5-17.7.3.2-2.6 3.5-6.4 7.3-7.5 7.6-9.9 11.8-11.5 20.5-.8 3.9-1.6 5.9-2.6 5.9-1.1 0-1.2-1.1-.7-5.1zM203.1 167.6c-6.2-4.1-13.1-8.2-15.2-9.2-4.5-2-5.2-3.9-1.1-3.1 3.2.6 14.4 7.1 16.3 9.3.6.8 1.7 1.4 2.3 1.4.7 0 2.7 1.3 4.6 3 2.3 1.9 4.6 2.9 6.8 3 3.4 0 4.3 1.4 1.6 2.4-2.8 1.1-3.7.7-15.3-6.8zM221 170.8c0-1.9 10.9-13.8 12.6-13.8 2.3 0 1.7 1-4.8 7.9-6.9 7.2-7.8 7.9-7.8 5.9zM237 153.4c0-.9.9-1.8 2-2.1 1.1-.3 2-1.1 2-1.8 0-2.4 20.5-18.7 29-23 6.5-3.2 9-3.9 9-2.3 0 .7-3.5 3-7.8 5.1-7.8 3.8-18.6 11.8-27.8 20.7-5.6 5.4-6.4 5.8-6.4 3.4zM278 142.1c0-1.4 3-2.6 8.8-3.6 3.4-.5 4.2-.4 4.2.8 0 .9-1.4 1.7-3.7 2.1-2.1.4-5 .9-6.5 1.2-1.7.3-2.8.1-2.8-.5zM309.3 141.3c-3.9-.3-5.3-.8-5.3-1.9 0-1.2 1.4-1.4 7.2-1.2 6 .2 7.3.6 7.6 2.1.3 1.2-.3 1.7-2 1.5-1.3-.1-4.7-.3-7.5-.5zM295.2 139.3c.2-1 1-1.8 1.8-1.8s1.6.8 1.8 1.8c.2 1.2-.3 1.7-1.8 1.7s-2-.5-1.8-1.7zM331.3 139c.4-1.7-.2-2.2-3.9-3.1-2.5-.7-4.4-1.7-4.4-2.5s.6-1.4 1.3-1.4c1.7 0 12.6 4.5 13.9 5.8 1.7 1.7-.1 3.2-3.9 3.2-3 0-3.5-.3-3-2zM312.5 131.9c-3.3-1.1-6.9-2.4-8-2.9-5.4-2.5-12.1-4-17.5-4-4.4 0-6-.4-6-1.4 0-3.3 12.8-2.3 22.7 2 4.5 1.9 10.8 3.9 14.6 4.8 1.5.4 2.7 1.3 2.7 2.1 0 1.9-1.1 1.8-8.5-.6z"/></g><g id="layer4"><path class="st4" d="M21.7 299.4c-.4-.4-.7-17.7-.7-38.4 0-35.2.1-37.8 1.8-39.3 2.1-1.9 5.8-2.2 6.7-.6.4.6 1.4.8 2.2.5.8-.3 2.3-.1 3.4.4 1.7 1 1.9 2.3 1.9 13.8 0 14 .4 15.2 5.5 15.2h3l-.3-13.3c-.2-10.1 0-13.6 1-14.4 2.3-1.8 13.4-2.3 15.7-.6 2.1 1.4 2.1 2.2 2.1 32.7 0 19.2-.4 31.6-1 32.2-.6.6-.6 2.1 0 4.3.7 2.5.6 3.9-.7 5.7-1.5 2.3-2.1 2.5-9.2 2.2l-7.6-.3-.3-16c-.1-8.8-.6-16.3-1.1-16.8s-2.3-.6-4-.2l-3.1.6-.2 16.2-.3 16.2-7 .3c-3.9.1-7.4 0-7.8-.4zM89.5 299.2c-.6-.5-2.9-1.4-5.2-2.2-2.8-.9-5-2.4-6.5-4.6-1.3-1.9-2.6-3.4-3-3.4-.5 0-.8-1.5-.8-3.4s-.4-3.8-1-4.1c-1.2-.8-1.4-27.2-.2-27.9.5-.3.9-2.5.9-5 .1-3.8.7-5.2 3.9-8.5 2-2.3 4.3-4.1 5.1-4.1.7 0 1.3-.4 1.3-1 0-1.5 13.7-1.2 16.8.4 4.9 2.5 9.2 8.2 9.2 12 0 1.9.5 3.8 1 4.1.6.4 1 6.5 1 15s-.4 14.6-1 15c-.5.3-1 1.7-1 3.1 0 3.2-4.4 10.1-7 10.9-1.1.3-2 1.1-2 1.6s-1.3.9-2.9.9c-1.7 0-3.3.5-3.6 1-.7 1.2-3.7 1.3-5 .2zm5.9-13.8c.3-.9.6-9.8.6-19.9 0-15.2-.3-18.5-1.5-19.5-1.3-1.1-2-1.1-4 0l-2.5 1.3v18.3c0 10 .3 18.9.6 19.8.4.9 1.8 1.6 3.4 1.6s3-.7 3.4-1.6zM254 299c-.8-.5-2.6-1.1-4-1.4-4.4-.9-9.9-5.8-10.6-9.4-.3-1.8-1-3.5-1.5-3.8-1.7-1-.9-5.1 1.5-7.3 1.9-1.8 3.3-2.2 7.2-1.9 3.4.2 4.9.7 5.1 1.8.9 7.5 1.6 9.2 3.6 9.9 2.9 1.1 6.6-1.6 6.7-4.7 0-2.3-2.6-7.2-3.9-7.2-.4 0-3-2-5.7-4.5s-5.4-4.5-6.1-4.5c-2 0-6.7-9-7.3-14.3-.8-5.7.4-8.8 4.7-12.9 3.8-3.6 7.3-4.8 14.6-4.8 9 0 16.6 4.7 16.7 10.2 0 1.5.5 3 1 3.3 1.6 1 1.2 4.1-.9 5.9-1.4 1.3-3.3 1.6-7.2 1.4-5.3-.3-5.4-.3-5.9-3.8-.4-2-1-4.1-1.4-4.8-.9-1.5-4.8-1.6-6.4 0-1.7 1.7-1.5 5.5.3 6.2.8.3 1.5 1.1 1.5 1.8s3.3 3.9 7.3 7.1c9.3 7.2 11.4 9.7 12.3 14.2.3 1.9 1 3.8 1.5 4.1 1.9 1.1.8 5.5-2.4 9.8-3.7 5.2-5.1 6.4-8.9 7.5-2.4.7-5.1 1.7-6 2.2-2.1 1.1-3.8 1.1-5.8-.1zM128.7 297.2c-1.5-1.6-1.7-5.3-1.7-31v-29.1l2.9-2c3.2-2.3 5.1-2.7 5.1-1.1 0 .6 1.1 1 2.3 1 1.3 0 3.1.8 4 1.8 1.5 1.6 1.7 4.8 1.7 24.3 0 21.2.1 22.5 2 23.6 1.2.8 2.1.9 2.5.3.9-1.4 6.9-1.2 8.3.2 1.6 1.6 1.6 11 0 12.6-.8.8-5.2 1.2-13.3 1.2-10.5 0-12.4-.2-13.8-1.8zM170.6 297.1c-1.5-1.7-1.7-4.8-1.4-32.4.2-16.8.6-30.9 1.1-31.3.4-.4 1.8-.1 3.2.6 2.1 1.1 2.9 1.1 5 0 1.4-.7 2.8-1 3.2-.6.5.4.9 12.1 1.1 25.9.2 13.9.7 25.6 1.1 26 .5.5 1.8.3 2.9-.4 1.6-1 2.3-1 3.5 0 1 .8 1.7.9 2.2.1 1-1.6 3.6-1.2 5.1.8.7.9 1.4 3.5 1.4 5.8 0 6.6-1.6 7.4-15.2 7.4-10 0-11.7-.2-13.2-1.9zM215.1 297.6c-.8-.9-1.1-10.1-.9-31.7l.3-30.4 2.5-.3c1.4-.2 3-.8 3.6-1.3.8-.6 2.4-.3 4.5.9l3.4 1.9.2 18.2c.1 10.1.4 18.6.7 18.9 1 1 .6 17.1-.4 17.7-.5.3-1 1.6-1 2.9 0 1.2-.5 2.7-1.2 3.4-1.7 1.7-10.3 1.5-11.7-.2zM301.2 297.8c-.9-.9-1.2-7.3-1.2-24.4 0-12.8-.3-23.9-.6-24.8-.4-1-1.8-1.6-3.6-1.6-4.7 0-6.8-1.6-6.8-5.4 0-6.1 2-6.9 18.1-6.7 7.8.1 14.6.4 15 .7.5.3.9 1.4.9 2.5 0 1 .6 2.8 1.2 3.9 1.7 2.7 0 4.2-5.4 4.9l-4.3.6-.5 25.5-.5 25.5-5.5.3c-3.4.2-6-.2-6.8-1zM339.1 297.6c-.8-.9-1.1-10.1-.9-31.7l.3-30.4 14.9-.3c16.4-.3 17.6.1 17.6 5.3 0 4.6-2.2 5.9-10.9 6.5l-7.6.5-.3 4.8c-.2 2.7.1 5.4.7 6.1 1 1.2 4.5 1.3 7.2.2.8-.4 3.2 0 5.2.9 3.6 1.5 4.8 3.7 2.7 5-.6.3-.7 1.7-.4 3 .7 2.7.1 2.9-9.8 4l-5.8.6v5.9c0 5.1.3 5.8 2.3 6.5 3.6 1.1 7.1 1.2 8.3.3.6-.4 2.4-.1 4.3.8 2.8 1.4 3.1 2 3.1 6.3 0 2.6-.5 5.2-1.2 5.9-1.8 1.8-28.2 1.7-29.7-.2zM412.6 294.6c-.8-1.7-2-5.5-2.7-8.4-.6-2.8-1.5-5.5-2-5.8-.6-.3-.7-1.4-.4-2.3.5-1.8-2.9-7.1-4.6-7.1-.5 0-.9 3.8-.9 8.4 0 4.9-.4 8.8-1.1 9.1-.5.4-.7 1.9-.4 3.4.8 3.9-1.3 5.3-7.7 4.9l-5.3-.3-.3-29.4c-.2-21.4.1-29.7.9-30.8 1-1.1 4.1-1.4 14.6-1.2 13.1.2 13.3.2 16.3 3 4.3 4.2 6 8.1 6 14.3 0 5-.4 6-3.5 9.5-4 4.5-4.2 5.8-1.5 11.1 1.1 2.2 2 4.8 2 5.9 0 1.1.5 2.3 1 2.6.6.3 1 1.9 1 3.4 0 1.6.7 3.4 1.5 4.1 1.5 1.2 1.2 5.5-.6 7.4-.5.5-3.1 1-5.8 1.1-4.6.2-5.1 0-6.5-2.9zm-5.9-35.2c2.2-.6 4.3-5.3 4.3-9.7 0-2.1-4.4-4-7.1-3.2-1.6.5-1.9 1.6-1.9 6.4 0 7.2.3 7.7 4.7 6.5zM215.8 200c-.1-.5-3.6-1.1-7.5-1.3-4-.2-7.6-.7-8-1-.9-1-10.7-.9-11.8.2-1.5 1.2-9.5.1-9.5-1.4 0-.7.7-1.5 1.5-1.8.8-.4 2.3-2.3 3.3-4.4 1.1-2.1 2.9-4.7 4.1-5.7 2.8-2.6 2.6-4-.6-5.7-1.6-.7-3.7-2.3-4.9-3.5-1.8-1.9-3.1-2.1-8.4-1.9-4.1.2-6.7.8-7.4 1.7-.6.8-1.8 1.5-2.6 1.6-4.7.4-13.6 2.4-14.4 3.3-1.3 1.2-10.6 1.2-10.6-.1 0-.5-1.8-1.3-4-1.6-4.9-.8-5.2-2.9-.7-4.8 1.7-.8 6.1-2.6 9.7-4.1 3.6-1.5 10.3-4.8 15-7.3 13-7 13.6-7.2 19.2-8.2 4.7-.7 5.7-.6 8.8 1.4 8.3 5.4 13.7 8.5 16.3 9.5 1.5.6 2.7 1.5 2.7 2.1 0 .5.7 1 1.5 1s1.5.4 1.5.9 1.6 1.6 3.5 2.5c3.3 1.6 3.6 1.6 7.2-.8 4.5-2.9 12-10.4 13.7-13.7.6-1.3 2.1-2.8 3.4-3.4 1.2-.5 2.2-1.6 2.2-2.3 0-.7.8-1.6 1.8-1.9.9-.4 5.2-3.7 9.5-7.4 15.4-13.3 26.1-18.9 36.3-18.9 5.9 0 13.5 1.8 17.6 4 1 .6 2.5 1 3.3 1 .8 0 2.3.4 3.3.9 3.4 1.7 9.2 3.2 10.2 2.6.5-.3 2 .1 3.2.9 1.2.9 3.5 1.6 5.1 1.6 1.6 0 3.7.5 4.8 1 2.5 1.4 2.5 5 0 5-1.1 0-2.3.5-2.6 1-.9 1.4-12.2 1.3-13.1-.1-.5-.8-3.6-1-9.9-.6-5.8.3-9.7.1-10.3-.5s-1.6-.7-2.4-.2c-.7.5-3.5.9-6.3 1-3.3 0-6.2.8-8.5 2.2-1.9 1.2-4.3 2.2-5.3 2.2-2.9 0-12.2 10.1-15.6 16.9-1.7 3.4-3.3 8.4-3.7 11.1-.6 4.8-.6 5 1.7 5 5.7 0 25.4 2.2 25.9 2.9.7 1 7.8 4.8 11.3 6.1 1.6.6 2.7 1.5 2.5 2.2-.6 1.8-9.7 6.4-14.3 7.2-2.2.4-4.4 1-4.9 1.3-1.9 1.2-13.1.9-15.1-.3-1.2-.8-4.1-1.5-6.5-1.7-2.5-.2-5.8-.9-7.5-1.6-2.4-1-3.6-1-6-.1-1.6.7-6.7 2.2-11.3 3.4-4.5 1.3-8.5 2.6-8.9 2.9-1 1.1-7.1.8-7.5-.3z"/></g><g id="layer5"><path class="st5" d="M0 225V0h450v450H0V225zm36.2 57.8l.3-16.3h10l.3 16.3.2 16.2h15v-77H47.1l-.3 14.8-.3 14.7-3.8.3c-6.4.5-6.7-.3-6.7-15.9V222H22v77h14l.2-16.2zm66.1 12.5c1.7-1 4-3.4 5.2-5.3 1.8-3.2 2-5.2 2-24 0-23.1-.6-25.5-7.5-29.1-4.7-2.6-15.3-2.6-20 0-6.7 3.5-7.5 6.2-7.8 27.5-.5 24.5.9 28.6 10.5 32.2 4.8 1.8 13.3 1.2 17.6-1.3zm164 .8c7.8-3.3 11.1-11.1 8.7-20.1-1.2-4.6-3.1-6.8-16.3-18.3-4.3-3.7-6.7-6.6-6.7-7.9 0-2.7 2.8-5.8 5.2-5.8 2.8 0 5.8 3.6 5.8 7v3h12.3l-.6-5.6c-.7-6.8-2.7-10.1-7.5-12.1-4.9-2.1-15-1.9-19.8.3-6.4 3-9.4 13.8-6 21.8.8 1.8 3.6 5.1 6.2 7.2 9.2 7.3 15.4 14 15.4 16.4 0 3.3-2.8 6-6.1 6-3.4 0-4.9-2.4-4.9-7.4V277h-13v4.3c.1 6.7 3 12 8.1 14.5 5.6 2.7 13.3 2.8 19.2.3zM157 291.5v-5.4l-7.7-.3-7.8-.3-.3-25.2-.2-25.3h-13v62h29v-5.5zm41 0v-5.4l-7.7-.3-7.8-.3-.3-25.2-.2-25.3h-12v62h28v-5.5zm30-25.5v-31h-13v62h13v-31zm85.2 5.8l.3-25.3 4.8-.3 4.7-.3V235h-32v10.9l4.3.3 4.2.3.3 25.3.2 25.2h13l.2-25.2zm56.8 19.7v-5.4l-9.2-.3-9.3-.3-.3-6.4c-.2-3.6.2-6.9.8-7.5s4-.9 8-.8l7 .3v-11l-7.7-.3-7.8-.3v-13l8.8-.3 8.7-.3v-11l-15.2.3-15.3.3-.3 30.8-.2 30.7h32v-5.5zm30.2-7.7c.3-12.4.4-13.3 2.3-13.3 3 0 6 5.6 8.5 15.7 1.3 5.1 2.8 9.6 3.4 10 .6.4 3.6.8 6.7.8h5.7l-4-12.7c-2.2-7-4.7-13.8-5.6-15.1-1.5-2.3-1.4-2.5 2.1-5.5 4.6-4.1 6.2-9.7 4.6-16.1-2.2-9-7.1-11.5-24-12.3l-11.9-.6V297h11.9l.3-13.2zm-163-88.7l8.7-3.1 10.3 2.5c11.8 2.9 19.5 3.1 27.9 1 5.8-1.5 13-5.1 12.8-6.3 0-.4-3.7-2.5-8.2-4.7-7.9-3.9-8.5-4-20.7-4.5l-12.5-.5.1-5.1c.1-3.2 1.2-7.4 2.7-10.9 3.2-6.9 12.9-17.2 20-21.1l5.2-2.9H307c12.9-.1 25.1-.2 27-.3l3.5-.3-2.7-1.5c-1.5-.8-7.1-2.6-12.3-4-5.3-1.4-12.6-3.7-16.2-5-3.7-1.4-9.5-3.2-13-4-5.7-1.3-7.1-1.3-12.4 0-13.4 3.5-26.6 12.9-47.6 34.2-8.4 8.5-15.9 15.4-16.8 15.4-.9 0-6-2.9-11.3-6.4-23.5-15.6-25.7-15.8-46.2-4.5-5.8 3.2-14.3 7.2-19 9-4.7 1.7-8.9 3.5-9.4 4-1.4 1.3 6.3 2.4 15.9 2.3 7.3-.1 10.4-.7 16-2.9 12.5-4.9 15.2-4.7 23.5 1.6 6.3 4.7 7 5.8 4.1 6.6-1.1.3-3.2 2.6-4.7 5.2-1.4 2.5-3.7 5.5-5 6.6l-2.4 2.1 9.3-.9c6.9-.6 11.6-.4 18.7.7 12.6 2 20.6 1.4 31.2-2.3z"/><path class="st5" d="M88.7 286.2c-2.4-2.7-2.5-36.6-.1-40 1.8-2.7 4.5-2.8 6.7-.4 1.5 1.6 1.7 4.5 1.7 20.4 0 16.6-.2 18.7-1.8 20.1-2.4 2.2-4.5 2.1-6.5-.1zM400.5 259.8c-.3-.8-.5-4.4-.3-7.9l.3-6.4 3.7-.3c4.9-.4 7.8 2.4 7.8 7.6 0 4.7-2.2 7-7.4 7.9-2.6.4-3.7.2-4.1-.9z"/></g></svg>
