<?xml version="1.0" encoding="utf-8"?>
<!-- Generator: Adobe Illustrator 19.2.1, SVG Export Plug-In . SVG Version: 6.00 Build 0)  -->
<svg version="1.1" id="layer" xmlns="http://www.w3.org/2000/svg" xmlns:xlink="http://www.w3.org/1999/xlink" x="0px" y="0px"
	 viewBox="0 0 652 652" style="enable-background:new 0 0 652 652;" xml:space="preserve">
<style type="text/css">
	.st0{font-family:'TimesNewRomanPSMT';}
	.st1{font-size:24.5692px;}
	.st2{fill:#DC002E;}
	.st3{fill:#FFFFFF;}
</style>
<text transform="matrix(1 0 0 1 611.5049 381.9834)" class="st0 st1"> </text>
<g>
	<g>
		<path d="M348.9,289c-1.6,0-2.7,1.1-3.2,2.7c-3.3,13.1-3.3,13.1-3.3,13.1c-2.2,7.6-5.4,20.1-6.5,25.5c-1.1-5.5-3.8-17.9-5.9-25.5
			c-4.4-15.7-4.4-15.7-4.4-15.7c-18.4,0-18.4,0-18.4,0c20.6,59.8,20.6,59.8,20.6,59.8c16.8,0,16.8,0,16.8,0
			c15.7-46.2,15.7-46.2,15.7-46.2c0-13.6,0-13.6,0-13.6H348.9z"/>
		<path d="M111.8,289c-1.6,0-2.7,1.1-2.7,2.7c0,31.5,0,31.5,0,31.5c0,7.6-2.7,11.9-9.2,11.9c-6.5,0-9.8-4.3-9.8-11.9
			c0-34.2,0-34.2,0-34.2c-16.8,0-16.8,0-16.8,0c0,34.2,0,34.2,0,34.2c0,19,10.8,26.6,26,26.6c15.2,0,26.5-7.6,26.5-26.6
			c0-34.2,0-34.2,0-34.2H111.8z"/>
		<path d="M452.2,325.9c6.5-2.7,10.8-8.7,10.8-17.4c0-14.1-9.8-19.5-23.3-19.5c-27,0-27,0-27,0c0,59.8,0,59.8,0,59.8
			c13.5,0,13.5,0,13.5,0c1.6,0,2.7-1.1,2.7-2.7c0-43.5,0-43.5,0-43.5c10.3,0,10.3,0,10.3,0c4.9,0,7.1,2.7,7.1,6.5
			c0,3.8-2.2,6.5-7.6,6.5c-6.5,0-6.5,0-6.5,0c0,13,0,13,0,13c3.8,0,3.8,0,3.8,0c9.8,20.1,9.8,20.1,9.8,20.1c18.4,0,18.4,0,18.4,0
			L452.2,325.9z"/>
		<path d="M193,310.1c17.9-21.2,17.9-21.2,17.9-21.2c-20.6,0-20.6,0-20.6,0c-4.3,5.9-4.3,5.9-4.3,5.9c-3.8,4.9-9.2,11.9-11.9,15.7
			c0.5-4.3,0.5-21.7,0.5-21.7c-17.3,0-17.3,0-17.3,0c0,43.4,0,43.4,0,43.4c0,2.2-1.1,3.3-2.7,3.3c-1.6,0-1.6,0-1.6,0
			c0,13.1,0,13.1,0,13.1c21.6,0,21.6,0,21.6,0c0-17.9,0-17.9,0-17.9c6-7.6,6-7.6,6-7.6c12.4,25.5,12.4,25.5,12.4,25.5
			c20.1,0,20.1,0,20.1,0L193,310.1z"/>
		<path d="M150.2,289c-21.1,0-21.1,0-21.1,0c0,13,0,13,0,13c1.1,0,1.1,0,1.1,0c1.6,0,2.7,1.1,2.7,3.3c0,40.8,0,40.8,0,40.8
			c0,1.7,1.6,2.7,3.2,2.7c14.1,0,14.1,0,14.1,0V289z"/>
		<polygon points="363.5,348.7 363.5,289 408.9,289 408.9,302.5 379.7,302.5 379.7,310.7 397.6,310.7 397.6,324.8 379.7,324.8 
			379.7,334.6 410,334.6 410,348.7 		"/>
		<path d="M261.2,289c-1.7,0-3.3,1.1-3.3,2.7c0,57.1,0,57.1,0,57.1c16.8,0,16.8,0,16.8,0c0-59.8,0-59.8,0-59.8H261.2z"/>
		<path d="M324.5,348.7c-4.8-14.1-4.8-14.1-4.8-14.1c-20.6,0-20.6,0-20.6,0c0-42.9,0-42.9,0-42.9c0-1.6-1.6-2.7-3.2-2.7
			c-17.9,0-17.9,0-17.9,0c0,13,0,13,0,13s0.5,0,1.1,0c1.6,0,3.2,1.1,3.2,2.7c0,44,0,44,0,44H324.5z"/>
		<path d="M254.7,328.1c-0.5-9.2-7.6-13.6-21.6-16.8l0,0c-7.1-2.2-9.2-3.3-9.2-5.5c0-2.1,1.1-3.3,6-3.3c5.9,0,11.3,1.7,16.8,5.5
			c8.1-13.1,8.1-13.1,8.1-13.1c-6.5-4.3-13.5-7.1-23.8-7.1c-14.6,0-23.8,7.6-23.8,19c0,12,6.5,15.8,20.6,19.1c0,0.5,0.5,0.5,0.5,0.5
			c8.1,1.6,10.3,3.3,10.3,5.4c0,2.2-2.2,3.8-7.5,3.8c-3.8,0-8.2-1.1-11.9-2.7c-2.2-0.6-3.8-1.7-3.8-1.7c-1.1-0.5-3.2-0.5-3.8,1.1
			c-2.2,3.3-2.2,3.3-2.2,3.3c7.1,13.1,7.1,13.1,7.1,13.1c4.9,0.5,8.6,1.1,14.1,1.1c13.5,0,23.3-4.9,24.3-16.8c0-1.1,0.5-1.7,0.5-2.7
			C255.2,329.7,254.7,328.6,254.7,328.1z"/>
		<path d="M44.7,329.2c12.4,20.6,12.4,20.6,12.4,20.6c18.4,0,18.4,0,18.4,0c-8.6-13.6-8.6-13.6-8.6-13.6c1.6-2.1,3.8-4.3,3.8-14.1
			c0,0,0-10.9-0.5-16.3c-2.2-13.6-13-18.5-26-18.5l0,0c-0.5,0-1.7,0-2.7,0c-2.7,0-5.4,0.5-8.1,1.7c-7.6,2.1-13,7.6-14.6,16.8
			c-0.5,3.3-0.5,6-0.5,8.1c0,0-0.5,8.2-0.5,8.7c0.5,19,11.9,26.1,27.1,26.1c3.2,0,4.9,0,7-1.1l-7.6-13.6c-6.5,0-9.8-4.3-9.8-11.9
			c0,0,0-7.6,0-10.9c1.1-5.5,4.3-9.3,9.8-9.3c6.5,0,9.7,4.9,9.7,11.9c0,10.3,0,10.3,0,10.3L44.7,329.2z"/>
		<path class="st2" d="M611.3,381.3c0,1.6-1.1,3.3-2.7,3.3c-125.5,0-125.5,0-125.5,0c-2.2,0-3.3-1.7-3.3-3.3
			c0-126.1,0-126.1,0-126.1c0-1.6,1.1-3.3,3.3-3.3c125.5,0,125.5,0,125.5,0c1.6,0,2.7,1.7,2.7,3.3V381.3z"/>
		<path class="st3" d="M602.7,348.7c-108.3,0-108.3,0-108.3,0c-3.8,0-6.5-3.3-6.5-6c0-24.4,0-24.4,0-24.4c4.9,0,9.2-2.2,10.3-3.3
			c9.7-7.1,17.9-20.7,28.1-25c3.3-1.1,9.2-3.3,16.2-1.1c9.2,8.7,9.2,8.7,9.2,8.7s-4.8-2.2-11.9-2.2c-7.5,0-22.2,6-22.2,22.9
			c0,13.6,9.2,22.8,24.3,22.8c53,0,53,0,53,0C602.7,348.7,602.7,348.7,602.7,348.7z"/>
		<path class="st3" d="M541,318.8c-0.5,0.5,0,1.1,0.5,1.1c6,0,6,0,6,0c4.3-3.8,4.3-3.8,4.3-3.8c1.1-0.5,1.6-0.5,1.6,0.5
			c0,7.1,0,7.1,0,7.1c0,1.1,1.1,1.1,1.6,0.5c4.8-4.3,4.8-4.3,4.8-4.3c5.4,0,5.4,0,5.4,0c0.5,0,1.1-0.5,0.5-1.1
			C555.1,308,555.1,308,555.1,308c-0.5-0.5-2.2-0.5-3.3,0C551.8,308.5,541,318.8,541,318.8z M590.2,336.2c-49.8,0-49.8,0-49.8,0
			c-5.4,0-13-2.7-15.2-7.6c0,0,22.2-22.8,23.3-23.9c2.7-2.7,7.6-2.7,9.7,0L590.2,336.2z"/>
	</g>
</g>
</svg>
